<?xml version="1.0" standalone="no"?>
<!DOCTYPE svg PUBLIC "-//W3C//DTD SVG 20010904//EN"
 "http://www.w3.org/TR/2001/REC-SVG-20010904/DTD/svg10.dtd">
<svg version="1.0" xmlns="http://www.w3.org/2000/svg"
 width="256.000000pt" height="256.000000pt" viewBox="0 0 256.000000 256.000000"
 preserveAspectRatio="xMidYMid meet">
<metadata>
Created by potrace 1.16, written by Peter Selinger 2001-2019
</metadata>
<g transform="translate(0.000000,256.000000) scale(0.100000,-0.100000)"
fill="#000000" stroke="none">
<path d="M0 1280 l0 -1280 188 0 187 0 30 62 c17 34 40 74 52 88 l22 26 86
-42 c47 -23 94 -49 103 -57 65 -58 434 -90 687 -60 198 24 465 75 465 90 0 2
-7 20 -16 41 -9 20 -27 73 -39 117 -16 57 -25 75 -30 62 -7 -16 3 -81 21 -146
7 -22 5 -23 -40 -20 -25 2 -47 0 -49 -6 -2 -5 -12 22 -21 60 -25 98 -24 95
-37 95 -12 0 -9 -38 7 -116 6 -29 4 -31 -27 -32 -17 0 -35 -6 -39 -12 -13 -21
-23 8 -28 82 -6 91 -26 85 -30 -10 -2 -55 -6 -70 -17 -66 -7 3 -23 -4 -34 -15
l-21 -21 -10 25 c-6 15 -13 51 -16 81 -5 39 -11 54 -22 54 -12 0 -14 -12 -9
-74 l5 -74 -34 -4 c-20 -2 -38 0 -41 5 -3 5 -8 38 -11 73 -4 54 -8 64 -23 64
-18 0 -19 -6 -13 -70 l7 -70 -30 0 c-37 0 -43 13 -43 85 0 46 -3 53 -22 58
-18 5 -19 8 -8 21 8 11 30 16 66 16 73 0 300 20 349 31 33 7 30 8 -20 3 -33
-3 -134 -9 -225 -14 -152 -8 -166 -7 -188 10 -37 30 -120 41 -266 38 -107 -2
-136 0 -136 10 0 7 -4 11 -9 8 -13 -8 -121 88 -121 107 0 5 -9 20 -20 34 -11
14 -17 30 -13 36 3 5 1 7 -5 3 -6 -3 -13 -2 -17 4 -3 5 -1 10 4 10 6 0 11 11
11 25 0 15 6 25 14 25 7 0 16 10 20 23 5 18 8 20 16 7 9 -13 10 -13 11 0 0 8
2 23 4 32 2 10 -1 18 -6 18 -6 0 -7 5 -4 10 5 8 11 7 21 -1 12 -10 13 -9 8 5
-3 9 0 23 7 32 7 8 8 14 3 13 -5 -1 -16 -1 -24 1 -11 1 -9 4 5 10 17 7 17 9 3
9 -16 1 -24 25 -19 55 3 16 -20 34 -39 29 -23 -6 -79 -87 -81 -117 -1 -12 -1
-36 -1 -53 1 -18 -2 -33 -6 -33 -9 0 -47 89 -56 130 -14 64 -17 209 -6 265 6
33 13 67 14 75 9 60 43 140 129 299 15 28 24 51 21 51 -4 0 0 8 9 18 8 9 17
24 19 32 2 8 6 17 10 20 12 9 19 112 7 104 -18 -11 6 26 46 71 32 37 34 38 25
12 -7 -21 -7 -26 2 -21 7 5 9 2 6 -8 -4 -9 0 -16 10 -17 38 -5 179 -1 205 6
l28 8 -26 50 c-32 60 -63 95 -84 96 -9 0 -6 4 8 10 46 18 120 -35 159 -112 12
-23 23 -33 37 -32 11 1 67 7 125 14 64 7 163 9 253 5 97 -4 147 -2 147 4 0 20
85 99 122 115 66 27 78 22 169 -72 169 -176 296 -413 357 -668 26 -108 23
-272 -6 -360 -37 -110 -87 -195 -154 -263 -55 -56 -69 -64 -147 -88 -47 -15
-109 -28 -138 -28 -28 -1 -46 -4 -40 -8 8 -5 8 -8 2 -8 -6 0 -16 5 -22 11 -14
14 -47 4 -38 -11 3 -6 -1 -7 -9 -4 -9 3 -16 1 -16 -5 0 -6 -12 -12 -27 -12
-24 -2 -25 -2 -6 -6 30 -6 161 21 305 63 64 19 125 34 135 34 24 0 115 76 170
141 57 70 128 213 154 314 27 104 36 307 19 424 -14 101 -61 252 -101 332 -35
70 -133 195 -182 232 l-37 28 6 -40 c4 -28 3 -41 -5 -41 -6 0 -11 14 -11 31 0
27 -2 30 -15 19 -20 -17 -19 -1 2 22 15 17 15 18 -13 19 -26 2 -26 2 -5 6 22
4 21 7 -20 34 -72 49 -194 108 -289 140 -141 47 -266 62 -505 63 -170 1 -195
2 -130 9 111 11 372 2 479 -18 156 -28 299 -83 424 -164 34 -23 65 -41 68 -41
4 0 4 17 0 38 -4 26 -3 31 4 17 5 -11 9 -31 9 -44 l1 -25 32 30 32 29 -22 -29
c-29 -39 -28 -46 11 -47 30 -2 31 -2 4 -6 l-28 -4 25 -20 c42 -33 145 -168
178 -233 131 -260 151 -609 49 -872 -39 -99 -92 -176 -188 -271 l-82 -82 15
-38 c12 -28 15 -55 11 -100 -4 -36 -2 -63 3 -63 13 0 94 -116 126 -182 l28
-58 138 0 138 0 0 1280 0 1280 -1280 0 -1280 0 0 -1280z"/>
<path d="M1703 1836 c-37 -31 -71 -92 -58 -105 6 -5 49 -12 98 -15 98 -8 100
-6 72 62 -18 42 -52 82 -71 82 -7 0 -25 -11 -41 -24z"/>
<path d="M1727 1231 c-36 -23 -53 -48 -62 -88 -22 -103 74 -195 170 -163 37
12 105 82 86 88 -16 5 -14 32 3 32 19 0 4 74 -20 101 -45 50 -126 64 -177 30z"/>
<path d="M717 1212 c-47 -32 -61 -61 -62 -125 0 -55 2 -61 37 -92 66 -61 138
-56 199 12 28 33 29 36 12 48 -17 13 -17 14 0 20 19 8 22 40 8 78 -24 61 -139
96 -194 59z"/>
</g>
</svg>
